<?xml version="1.0" standalone="no"?><!DOCTYPE svg PUBLIC "-//W3C//DTD SVG 1.1//EN" "http://www.w3.org/Graphics/SVG/1.1/DTD/svg11.dtd"><svg t="1702285968879" class="icon" viewBox="0 0 1024 1024" version="1.1" xmlns="http://www.w3.org/2000/svg" p-id="11741" xmlns:xlink="http://www.w3.org/1999/xlink" width="64" height="64"><path d="M654.5408 353.6896a57.2416 57.2416 0 0 1-57.1904-57.1904V79.872H239.36a112.1792 112.1792 0 0 0-112.2304 112.1792v636.5696a112.1792 112.1792 0 0 0 112.2304 112.2304h532.0192a112.1792 112.1792 0 0 0 112.2304-112.2304V353.6896z m37.4784 354.5088H318.72a20.0704 20.0704 0 0 1 0-40.1408h373.2992a20.0704 20.0704 0 0 1 0 40.1408z m0-181.6576H318.72a20.0704 20.0704 0 0 1 0-40.1408h373.2992a20.0704 20.0704 0 1 1 0 40.1408z" fill="#4fb051" p-id="11742"></path><path d="M654.5408 313.5488h229.0688a41.472 41.472 0 0 0-12.8-29.7984l-202.0352-192.4608a40.96 40.96 0 0 0-28.5184-11.4176h-2.7648v216.6272a17.0496 17.0496 0 0 0 17.0496 17.0496z" fill="#4fb051" p-id="11743"></path></svg>