<?xml version="1.0" standalone="no"?><!DOCTYPE svg PUBLIC "-//W3C//DTD SVG 1.1//EN" "http://www.w3.org/Graphics/SVG/1.1/DTD/svg11.dtd"><svg t="1702286298494" class="icon" viewBox="0 0 1399 1024" version="1.1" xmlns="http://www.w3.org/2000/svg" p-id="21932" xmlns:xlink="http://www.w3.org/1999/xlink" width="87.4375" height="64"><path d="M1189.548734 858.08137l-31.450498 0L1158.098235 400.982974c0-27.680044-22.433114-50.119375-50.122483-50.119375l-224.508316 0L883.467436 50.122483c0-27.680044-22.433114-50.122483-50.122483-50.122483L337.130816 0c-27.673827 0-50.119375 22.442439-50.119375 50.122483l0 807.958887-11.364205 0c-27.680044 0-50.122483 22.433114-50.122483 50.11005l0 65.689205c0 27.676936 22.442439 50.119375 50.122483 50.119375l913.901497 0c27.683153 0 50.116266-22.442439 50.116266-50.119375l0-65.689205C1239.665 880.514484 1217.234995 858.08137 1189.548734 858.08137L1189.548734 858.08137zM739.789201 674.982773c0 27.689369-22.445547 50.122483-50.122483 50.122483l-208.845234 0c-27.683153 0-50.122483-22.433114-50.122483-50.122483l0-15.035191c0-27.680044 22.439331-50.116266 50.122483-50.116266l208.845234 0c27.676936 0 50.122483 22.436222 50.122483 50.116266L739.789201 674.982773 739.789201 674.982773zM739.789201 456.119259c0 27.680044-22.445547 50.122483-50.122483 50.122483l-208.845234 0c-27.683153 0-50.122483-22.442439-50.122483-50.122483l0-15.035191c0-27.680044 22.439331-50.122483 50.122483-50.122483l208.845234 0c27.676936 0 50.122483 22.442439 50.122483 50.122483L739.789201 456.119259 739.789201 456.119259zM739.789201 220.538926c0 27.683153-22.445547 50.122483-50.122483 50.122483l-208.845234 0c-27.683153 0-50.122483-22.439331-50.122483-50.122483l0-15.028974c0-27.689369 22.439331-50.125592 50.122483-50.125592l208.845234 0c27.676936 0 50.122483 22.439331 50.122483 50.125592L739.789201 220.538926 739.789201 220.538926zM1059.522464 764.376416l-133.659955 0c-23.064113 0-41.767182-18.703069-41.767182-41.773399 0-23.061005 18.703069-41.767182 41.767182-41.767182l133.659955 0c23.07033 0 41.77029 18.706177 41.77029 41.767182C1101.295863 745.673348 1082.592794 764.376416 1059.522464 764.376416L1059.522464 764.376416zM1059.522464 595.622952l-133.659955 0c-23.064113 0-41.767182-18.69996-41.767182-41.760965 0-23.079655 18.703069-41.776507 41.767182-41.776507l133.659955 0c23.07033 0 41.77029 18.69996 41.77029 41.776507C1101.295863 576.922992 1082.592794 595.622952 1059.522464 595.622952L1059.522464 595.622952zM1059.522464 595.622952" fill="#55D7FF" p-id="21933"></path></svg>