<?xml version="1.0" standalone="no"?><!DOCTYPE svg PUBLIC "-//W3C//DTD SVG 1.1//EN" "http://www.w3.org/Graphics/SVG/1.1/DTD/svg11.dtd"><svg t="1702286051736" class="icon" viewBox="0 0 1024 1024" version="1.1" xmlns="http://www.w3.org/2000/svg" p-id="13787" xmlns:xlink="http://www.w3.org/1999/xlink" width="64" height="64"><path d="M419.84 543.04v309.44H202.88c-10.24 0-19.84-3.52-27.2-10.24-7.04-6.4-11.2-15.36-11.2-24.64v-274.56h255.36z m439.36 274.56c0 9.28-3.52 17.92-10.24 24.64-6.4 6.4-15.36 10.24-24.64 10.24H473.92v-309.44h385.28v274.56zM821.44 171.52c9.92 0 19.84 3.52 26.88 10.24 7.04 6.4 11.2 15.36 11.2 24.64v274.56h-252.8V171.52h214.72z m-271.36 309.44H164.8V206.4c0-19.2 15.68-34.88 34.88-34.88h350.4v309.44z m0-309.44" fill="#8992c8" p-id="13788"></path></svg>